<?xml version="1.0" encoding="utf-8"?>
<!-- Generator: Adobe Illustrator 16.0.0, SVG Export Plug-In . SVG Version: 6.00 Build 0)  -->
<!DOCTYPE svg PUBLIC "-//W3C//DTD SVG 1.1//EN" "http://www.w3.org/Graphics/SVG/1.1/DTD/svg11.dtd">
<svg version="1.1" id="图层_1" xmlns:sketch="http://www.bohemiancoding.com/sketch/ns"
	 xmlns="http://www.w3.org/2000/svg" xmlns:xlink="http://www.w3.org/1999/xlink" x="0px" y="0px" width="19px" height="17px"
	 viewBox="0 0 19 17" enable-background="new 0 0 19 17" xml:space="preserve">
<title>heart fill</title>
<desc>Created with Sketch.</desc>
<g id="Page-1" sketch:type="MSPage">
	<g id="Icons" transform="translate(-89.000000, -32.000000)" sketch:type="MSArtboardGroup">
		<path id="heart-fill" sketch:type="MSShapeGroup" fill="#FF2C2C" d="M98.5,49c-0.084,0-0.167-0.021-0.243-0.063
			c-0.094-0.053-2.326-1.302-4.592-3.348c-1.341-1.21-2.411-2.447-3.183-3.68C89.498,40.339,89,38.771,89,37.25
			c0-2.895,2.355-5.25,5.25-5.25c0.98,0,2.021,0.367,2.931,1.034c0.532,0.39,0.985,0.86,1.319,1.359
			c0.334-0.499,0.787-0.969,1.318-1.359c0.91-0.667,1.951-1.034,2.932-1.034c2.895,0,5.25,2.355,5.25,5.25
			c0,1.521-0.499,3.089-1.482,4.66c-0.771,1.232-1.842,2.47-3.182,3.68c-2.266,2.046-4.498,3.295-4.592,3.348
			C98.668,48.979,98.585,49,98.5,49L98.5,49z"/>
	</g>
</g>
</svg>
